<svg xmlns="http://www.w3.org/2000/svg" version="1.1" width="0" height="0">
    <symbol id="close" viewBox="0 0 50 50">
        <path d="M25,3C12.869,3,3,12.869,3,25s9.869,22,22,22s22-9.869,22-22S37.131,3,25,3z M34.207,32.793 c0.391,0.391,0.391,1.023,0,1.414C34.012,34.402,33.756,34.5,33.5,34.5s-0.512-0.098-0.707-0.293L25,26.414l-7.793,7.793 C17.012,34.402,16.756,34.5,16.5,34.5s-0.512-0.098-0.707-0.293c-0.391-0.391-0.391-1.023,0-1.414L23.586,25l-7.793-7.793 c-0.391-0.391-0.391-1.023,0-1.414s1.023-0.391,1.414,0L25,23.586l7.793-7.793c0.391-0.391,1.023-0.391,1.414,0s0.391,1.023,0,1.414 L26.414,25L34.207,32.793z" />
    </symbol>
</svg>
